<svg xmlns="http://www.w3.org/2000/svg" viewBox="0 0 24 24" fill="none" stroke="currentColor" stroke-width="2" stroke-linecap="round" stroke-linejoin="round" class="text-cyan-400">
  <path d="M12 6c-2.67 0-4.33 1.33-5 4 1-1.33 2.17-1.83 3.5-1.5.76.19 1.31.74 1.91 1.34.98 1 2.09 2.16 4.59 2.16 2.67 0 4.33-1.33 5-4-1 1.33-2.17 1.83-3.5 1.5-.76-.19-1.31-.74-1.91-1.34C15.61 7.16 14.5 6 12 6zm-5 6c-2.67 0-4.33 1.33-5 4 1-1.33 2.17-1.83 3.5-1.5.76.19 1.31.74 1.91 1.34.98 1 2.09 2.16 4.59 2.16 2.67 0 4.33-1.33 5-4-1 1.33-2.17 1.83-3.5 1.5-.76-.19-1.31-.74-1.91-1.34C10.61 13.16 9.5 12 7 12z"/>
</svg> 